HIERARCHY
ROOT lpalm
{
	OFFSET	0.000000	0.000000	0.000000
	CHANNELS	6	Xposition	Yposition	Zposition	Zrotation	Xrotation	Yrotation
	JOINT lthumbA
	{
		OFFSET	-2.700000	-3.000000	0.000000
		CHANNELS	3	Zrotation	Xrotation	Yrotation
		JOINT lthumbB
		{
			OFFSET	0.000000	0.000000	7.000000
			CHANNELS	3	Zrotation	Xrotation	Yrotation
			JOINT lthumbC
			{
				OFFSET	0.000000	0.000000	4.000000
				CHANNELS	3	Zrotation	Xrotation	Yrotation
				End Site
				{
					OFFSET	0.000000	0.000000	3.000000
				}
			}
		}
	}
	JOINT lindexA
	{
		OFFSET	-2.700000	0.000000	11.500000
		CHANNELS	3	Zrotation	Xrotation	Yrotation
		JOINT lindexB
		{
			OFFSET	0.000000	0.000000	4.900000
			CHANNELS	3	Zrotation	Xrotation	Yrotation
			JOINT lindexC
			{
				OFFSET	0.000000	0.000000	3.000000
				CHANNELS	3	Zrotation	Xrotation	Yrotation
				End Site
				{
					OFFSET	0.000000	0.000000	2.200000
				}
			}
		}
	}
	JOINT lmiddleA
	{
		OFFSET	-0.600000	0.000000	11.000000
		CHANNELS	3	Zrotation	Xrotation	Yrotation
		JOINT lmiddleB
		{
			OFFSET	0.000000	0.000000	5.500000
			CHANNELS	3	Zrotation	Xrotation	Yrotation
			JOINT lmiddleC
			{
				OFFSET	0.000000	0.000000	3.800000
				CHANNELS	3	Zrotation	Xrotation	Yrotation
				End Site
				{
					OFFSET	0.000000	0.000000	2.400000
				}
			}
		}
	}
	JOINT lringA
	{
		OFFSET	1.900000	0.000000	10.500000
		CHANNELS	3	Zrotation	Xrotation	Yrotation
		JOINT lringB
		{
			OFFSET	0.000000	0.000000	5.300000
			CHANNELS	3	Zrotation	Xrotation	Yrotation
			JOINT lringC
			{
				OFFSET	0.000000	0.000000	3.700000
				CHANNELS	3	Zrotation	Xrotation	Yrotation
				End Site
				{
					OFFSET	0.000000	0.000000	2.400000
				}
			}
		}
	}
	JOINT llittleA
	{
		OFFSET	3.500000	0.000000	9.300000
		CHANNELS	3	Zrotation	Xrotation	Yrotation
		JOINT llittleB
		{
			OFFSET	0.000000	0.000000	4.300000
			CHANNELS	3	Zrotation	Xrotation	Yrotation
			JOINT llittleC
			{
				OFFSET	0.000000	0.000000	2.500000
				CHANNELS	3	Zrotation	Xrotation	Yrotation
				End Site
				{
					OFFSET	0.000000	0.000000	2.000000
				}
			}
		}
	}
}
MOTION
Frames:	37
Frame Time:	0.013305
0.00	0.00	0.00	0.00	-0.02	-0.03	-0.57	-0.28	-33.52	-12.66	-8.11	32.14	0.00	0.00	-0.08	0.00	-0.03	-0.17	0.00	0.23	0.00	0.00	0.00	0.00	0.00	0.17	0.06	0.00	0.13	0.00	0.00	0.00	0.00	0.00	0.08	0.02	0.00	0.00	0.00	0.00	0.04	0.00	0.00	0.73	0.10	0.00	0.18	0.00	0.00	0.00	0.00
0.00	0.00	0.00	0.00	-0.01	-0.03	-0.59	-0.29	-33.53	-12.66	-8.11	32.15	0.00	0.00	-0.08	0.00	-0.02	-0.17	0.00	0.23	0.00	0.00	0.00	0.00	0.00	0.15	0.05	0.00	0.13	0.00	0.00	0.00	0.00	0.00	0.08	0.02	0.00	0.00	0.00	0.00	0.05	0.00	0.00	0.73	0.10	0.00	0.17	0.00	0.00	0.00	0.00
0.00	0.00	0.00	0.00	-0.01	-0.04	-0.58	-0.28	-33.52	-12.66	-8.11	32.15	0.00	0.00	-0.08	0.00	-0.02	-0.16	0.00	0.22	0.00	0.00	0.00	0.00	0.00	0.16	0.05	0.00	0.13	0.00	0.00	0.00	0.00	0.00	0.09	0.02	0.00	0.00	0.00	0.00	0.06	0.00	0.00	0.74	0.10	0.00	0.17	0.00	0.00	0.00	0.00
0.00	0.00	0.00	0.00	-0.01	-0.03	-0.58	-0.29	-33.51	-12.66	-8.12	32.15	0.00	0.00	-0.08	0.00	-0.03	-0.16	0.00	0.22	0.00	0.00	0.00	0.00	0.00	0.16	0.05	0.00	0.13	0.00	0.00	0.00	0.00	0.00	0.08	0.02	0.00	0.00	0.00	0.00	0.06	0.00	0.00	0.73	0.10	0.00	0.17	0.00	0.00	0.00	0.00
0.00	0.00	0.00	0.00	0.00	-0.04	-0.58	-0.28	-33.50	-12.66	-8.12	32.16	0.00	0.00	-0.07	0.00	-0.03	-0.17	0.00	0.21	0.00	0.00	0.00	0.00	0.00	0.15	0.05	0.00	0.12	0.00	0.00	0.00	0.00	0.00	0.08	0.03	0.00	0.00	0.00	0.00	0.07	0.00	0.00	0.73	0.10	0.00	0.17	0.00	0.00	0.00	0.00
0.00	0.00	0.00	0.00	0.00	-0.04	-0.57	-0.28	-33.49	-12.65	-8.12	32.17	0.00	0.00	-0.07	0.00	-0.02	-0.17	0.00	0.21	0.00	0.00	0.00	0.00	0.00	0.15	0.05	0.00	0.13	0.00	0.00	0.00	0.00	0.00	0.08	0.03	0.00	0.00	0.00	0.00	0.07	0.00	0.00	0.74	0.09	0.00	0.16	0.00	0.00	0.00	0.00
0.00	0.00	0.00	0.00	0.01	-0.04	-0.59	-0.29	-33.50	-12.65	-8.12	32.17	0.00	0.00	-0.07	0.00	-0.01	-0.18	0.00	0.21	0.00	0.00	0.00	0.00	0.00	0.15	0.05	0.00	0.13	0.00	0.00	0.00	0.00	0.00	0.08	0.04	0.00	0.00	0.00	0.00	0.06	0.00	0.00	0.75	0.09	0.00	0.15	0.00	0.00	0.00	0.00
0.00	0.00	0.00	0.00	0.00	-0.04	-0.61	-0.30	-33.51	-12.65	-8.12	32.18	0.00	0.00	-0.06	0.00	-0.02	-0.18	0.00	0.21	0.00	0.00	0.00	0.00	0.00	0.16	0.05	0.00	0.13	0.00	0.00	0.00	0.00	0.00	0.09	0.05	0.00	0.00	0.00	0.00	0.06	0.00	0.00	0.76	0.09	0.00	0.15	0.00	0.00	0.00	0.00
0.00	0.00	0.00	0.00	0.00	-0.04	-0.65	-0.32	-33.53	-12.65	-8.12	32.17	0.00	0.00	-0.07	0.00	-0.02	-0.19	0.00	0.22	0.00	0.00	0.00	0.00	0.00	0.16	0.05	0.00	0.13	0.00	0.00	0.00	0.00	0.00	0.08	0.05	0.00	0.00	0.00	0.00	0.05	0.00	0.00	0.77	0.09	0.00	0.15	0.00	0.00	0.00	0.00
0.00	0.00	0.00	0.00	0.00	-0.04	-0.66	-0.32	-33.54	-12.65	-8.12	32.17	0.00	0.00	-0.07	0.00	-0.01	-0.18	0.00	0.21	0.00	0.00	0.00	0.00	0.00	0.16	0.05	0.00	0.13	0.00	0.00	0.00	0.00	0.00	0.08	0.05	0.00	0.00	0.00	0.00	0.05	0.00	0.00	0.78	0.09	0.00	0.15	0.00	0.00	0.00	0.00
0.00	0.00	0.00	0.00	0.00	-0.04	-0.66	-0.32	-33.54	-12.65	-8.12	32.17	0.00	0.00	-0.07	0.00	-0.01	-0.18	0.00	0.21	0.00	0.00	0.00	0.00	0.00	0.16	0.05	0.00	0.13	0.00	0.00	0.00	0.00	0.00	0.08	0.05	0.00	0.00	0.00	0.00	0.05	0.00	0.00	0.78	0.09	0.00	0.15	0.00	0.00	0.00	0.00
0.00	0.00	0.00	0.00	0.01	-0.04	-0.67	-0.33	-33.56	-12.66	-8.12	32.17	0.00	0.00	-0.07	0.00	-0.02	-0.18	0.00	0.21	0.00	0.00	0.00	0.00	0.00	0.16	0.05	0.00	0.14	0.00	0.00	0.00	0.00	0.00	0.08	0.06	0.00	0.00	0.00	0.00	0.05	0.00	0.00	0.77	0.09	0.00	0.15	0.00	0.00	0.00	0.00
0.00	0.00	0.00	0.00	0.01	-0.05	-0.66	-0.33	-33.57	-12.66	-8.12	32.17	0.00	0.00	-0.08	0.00	-0.03	-0.18	0.00	0.21	0.00	0.00	0.00	0.00	0.00	0.16	0.04	0.00	0.14	0.00	0.00	0.00	0.00	0.00	0.08	0.05	0.00	0.00	0.00	0.00	0.05	0.00	0.00	0.78	0.09	0.00	0.15	0.00	0.00	0.00	0.00
0.00	0.00	0.00	0.00	0.02	-0.06	-0.65	-0.32	-33.58	-12.66	-8.12	32.15	0.00	0.00	-0.08	0.00	-0.02	-0.17	0.00	0.21	0.00	0.00	0.00	0.00	0.00	0.15	0.04	0.00	0.14	0.00	0.00	0.01	0.00	0.00	0.08	0.05	0.00	0.00	0.00	0.00	0.05	0.00	0.00	0.78	0.08	0.00	0.15	0.00	0.00	0.00	0.00
0.00	0.00	0.00	0.00	0.01	-0.06	-0.65	-0.32	-33.59	-12.66	-8.12	32.15	0.00	0.00	-0.08	0.00	-0.02	-0.17	0.00	0.21	0.00	0.00	0.00	0.00	0.00	0.15	0.03	0.00	0.15	0.00	0.00	0.00	0.00	0.00	0.09	0.06	0.00	0.00	0.00	0.00	0.06	0.00	0.00	0.79	0.08	0.00	0.15	0.00	0.00	0.00	0.00
0.00	0.00	0.00	0.00	0.01	-0.06	-0.65	-0.32	-33.60	-12.66	-8.12	32.16	0.00	0.00	-0.08	0.00	-0.02	-0.17	0.00	0.21	0.00	0.00	0.00	0.00	0.00	0.15	0.04	0.00	0.15	0.00	0.00	0.00	0.00	0.00	0.09	0.05	0.00	0.00	0.00	0.00	0.06	0.00	0.00	0.79	0.08	0.00	0.16	0.00	0.00	0.00	0.00
0.00	0.00	0.00	0.00	0.01	-0.06	-0.66	-0.32	-33.60	-12.66	-8.12	32.15	0.00	0.00	-0.08	0.00	-0.02	-0.17	0.00	0.21	0.00	0.00	0.00	0.00	0.00	0.15	0.04	0.00	0.15	0.00	0.00	0.00	0.00	0.00	0.09	0.05	0.00	0.00	0.00	0.00	0.06	0.00	0.00	0.79	0.08	0.00	0.16	0.00	0.00	0.00	0.00
0.00	0.00	0.00	0.00	0.01	-0.06	-0.64	-0.32	-33.60	-12.66	-8.11	32.15	0.00	0.00	-0.08	0.00	-0.02	-0.17	0.00	0.20	0.00	0.00	0.00	0.00	0.00	0.15	0.04	0.00	0.15	0.00	0.00	0.00	0.00	0.00	0.09	0.05	0.00	0.00	0.00	0.00	0.06	0.00	0.00	0.80	0.09	0.00	0.16	0.00	0.00	0.00	0.00
0.00	0.00	0.00	0.00	0.02	-0.06	-0.61	-0.30	-33.57	-12.66	-8.12	32.15	0.00	0.00	-0.08	0.00	-0.03	-0.17	0.00	0.19	0.00	0.00	0.00	0.00	0.00	0.14	0.03	0.00	0.15	0.00	0.00	0.00	0.00	0.00	0.08	0.05	0.00	0.00	0.00	0.00	0.06	0.00	0.00	0.79	0.09	0.00	0.15	0.00	0.00	0.00	0.00
0.00	0.00	0.00	0.00	0.02	-0.06	-0.59	-0.29	-33.56	-12.66	-8.11	32.15	0.00	0.00	-0.09	0.00	-0.03	-0.17	0.00	0.19	0.00	0.00	0.00	0.00	0.00	0.13	0.03	0.00	0.14	0.00	0.00	0.00	0.00	0.00	0.08	0.05	0.00	0.00	0.00	0.00	0.06	0.00	0.00	0.79	0.09	0.00	0.15	0.00	0.00	0.00	0.00
0.00	0.00	0.00	0.00	0.03	-0.06	-0.58	-0.28	-33.54	-12.66	-8.11	32.15	0.00	0.00	-0.09	0.00	-0.03	-0.17	0.00	0.19	0.00	0.00	0.00	0.00	0.00	0.13	0.03	0.00	0.14	0.00	0.00	0.00	0.00	0.00	0.07	0.05	0.00	0.00	0.00	0.00	0.06	0.00	0.00	0.79	0.10	0.00	0.15	0.00	0.00	0.00	0.00
0.00	0.00	0.00	0.00	0.03	-0.06	-0.60	-0.30	-33.55	-12.66	-8.12	32.16	0.00	0.00	-0.10	0.00	-0.02	-0.16	0.00	0.19	0.00	0.00	0.00	0.00	0.00	0.13	0.01	0.00	0.13	0.00	0.00	0.00	0.00	0.00	0.08	0.05	0.00	0.00	0.00	0.00	0.06	0.00	0.00	0.79	0.11	0.00	0.15	0.00	0.00	0.00	0.00
0.00	0.00	0.00	0.00	0.02	-0.06	-0.63	-0.31	-33.56	-12.66	-8.12	32.16	0.00	0.00	-0.10	0.00	-0.02	-0.17	0.00	0.19	0.00	0.00	0.00	0.00	0.00	0.13	0.02	0.00	0.13	0.00	0.00	0.00	0.00	0.00	0.07	0.05	0.00	0.00	0.00	0.00	0.06	0.00	0.00	0.80	0.10	0.00	0.16	0.00	0.00	0.00	0.00
0.00	0.00	0.00	0.00	0.03	-0.06	-0.63	-0.31	-33.56	-12.66	-8.12	32.16	0.00	0.00	-0.09	0.00	-0.02	-0.16	0.00	0.19	0.00	0.00	0.00	0.00	0.00	0.14	0.02	0.00	0.13	0.00	0.00	0.00	0.00	0.00	0.07	0.04	0.00	0.00	0.00	0.00	0.06	0.00	0.00	0.79	0.10	0.00	0.16	0.00	0.00	0.00	0.00
0.00	0.00	0.00	0.00	0.03	-0.06	-0.62	-0.31	-33.55	-12.66	-8.12	32.16	0.00	0.00	-0.10	0.00	-0.02	-0.17	0.00	0.20	0.00	0.00	0.00	0.00	0.00	0.14	0.03	0.00	0.13	0.00	0.00	0.00	0.00	0.00	0.07	0.04	0.00	0.00	0.00	0.00	0.06	0.00	0.00	0.79	0.09	0.00	0.15	0.00	0.00	0.00	0.00
0.00	0.00	0.00	0.00	0.03	-0.06	-0.59	-0.29	-33.52	-12.66	-8.12	32.16	0.00	0.00	-0.10	0.00	-0.03	-0.17	0.00	0.19	0.00	0.00	0.00	0.00	0.00	0.14	0.04	0.00	0.13	0.00	0.00	0.00	0.00	0.00	0.06	0.04	0.00	0.00	0.00	0.00	0.06	0.00	0.00	0.78	0.09	0.00	0.15	0.00	0.00	0.00	0.00
0.00	0.00	0.00	0.00	0.04	-0.05	-0.57	-0.28	-33.50	-12.66	-8.12	32.16	0.00	0.00	-0.10	0.00	-0.04	-0.17	0.00	0.19	0.00	0.00	0.00	0.00	0.00	0.15	0.05	0.00	0.12	0.00	0.00	0.00	0.00	0.00	0.06	0.04	0.00	0.00	0.00	0.00	0.06	0.00	0.00	0.78	0.09	0.00	0.15	0.00	0.00	0.00	0.00
0.00	0.00	0.00	0.00	0.03	-0.05	-0.55	-0.27	-33.49	-12.66	-8.12	32.16	0.00	0.00	-0.09	0.00	-0.03	-0.17	0.00	0.19	0.00	0.00	0.00	0.00	0.00	0.15	0.04	0.00	0.13	0.00	0.00	0.00	0.00	0.00	0.06	0.04	0.00	0.00	0.00	0.00	0.06	0.00	0.00	0.78	0.10	0.00	0.15	0.00	0.00	0.00	0.00
0.00	0.00	0.00	0.00	0.03	-0.05	-0.56	-0.28	-33.50	-12.66	-8.12	32.17	0.00	0.00	-0.09	0.00	-0.04	-0.18	0.00	0.20	0.00	0.00	0.00	0.00	0.00	0.14	0.04	0.00	0.13	0.00	0.00	0.00	0.00	0.00	0.07	0.05	0.00	0.00	0.00	0.00	0.06	0.00	0.00	0.79	0.10	0.00	0.16	0.00	0.00	0.00	0.00
0.00	0.00	0.00	0.00	0.03	-0.05	-0.57	-0.28	-33.50	-12.65	-8.12	32.17	0.00	0.00	-0.08	0.00	-0.04	-0.18	0.00	0.20	0.00	0.00	0.00	0.00	0.00	0.15	0.03	0.00	0.13	0.00	0.00	0.01	0.00	0.00	0.07	0.04	0.00	0.00	0.00	0.00	0.06	0.00	0.00	0.79	0.10	0.00	0.16	0.00	0.00	0.00	0.00
0.00	0.00	0.00	0.00	0.04	-0.05	-0.60	-0.30	-33.51	-12.66	-8.12	32.17	0.00	0.00	-0.09	0.00	-0.06	-0.17	0.00	0.20	0.00	0.00	0.00	0.00	0.00	0.14	0.03	0.00	0.13	0.00	0.00	0.01	0.00	0.00	0.06	0.05	0.00	0.00	0.00	0.00	0.06	0.00	0.00	0.79	0.10	0.00	0.16	0.00	0.00	0.00	0.00
0.00	0.00	0.00	0.00	0.04	-0.04	-0.58	-0.29	-33.51	-12.66	-8.12	32.17	0.00	0.00	-0.09	0.00	-0.07	-0.16	0.00	0.20	0.00	0.00	0.00	0.00	0.00	0.14	0.02	0.00	0.13	0.00	0.00	0.01	0.00	0.00	0.07	0.05	0.00	0.00	0.00	0.00	0.07	0.00	0.00	0.79	0.10	0.00	0.15	0.00	0.00	0.00	0.00
0.00	0.00	0.00	0.00	0.05	-0.04	-0.58	-0.29	-33.50	-12.66	-8.12	32.17	0.00	0.00	-0.09	0.00	-0.08	-0.16	0.00	0.19	0.00	0.00	0.00	0.00	0.00	0.13	0.03	0.00	0.12	0.00	0.00	0.01	0.00	0.00	0.06	0.04	0.00	0.00	0.00	0.00	0.07	0.00	0.00	0.79	0.10	0.00	0.15	0.00	0.00	0.00	0.00
0.00	0.00	0.00	0.00	0.05	-0.04	-0.56	-0.28	-33.48	-12.66	-8.12	32.16	0.00	0.00	-0.10	0.00	-0.08	-0.17	0.00	0.19	0.00	0.00	0.00	0.00	0.00	0.13	0.03	0.00	0.11	0.00	0.00	0.01	0.00	0.00	0.05	0.04	0.00	0.00	0.00	0.00	0.07	0.00	0.00	0.79	0.10	0.00	0.15	0.00	0.00	0.00	0.00
0.00	0.00	0.00	0.00	0.05	-0.04	-0.55	-0.27	-33.47	-12.66	-8.12	32.16	0.00	0.00	-0.10	0.00	-0.07	-0.17	0.00	0.19	0.00	0.00	0.00	0.00	0.00	0.13	0.03	0.00	0.12	0.00	0.00	0.01	0.00	0.00	0.05	0.04	0.00	0.00	0.00	0.00	0.06	0.00	0.00	0.79	0.10	0.00	0.15	0.00	0.00	0.00	0.00
0.00	0.00	0.00	0.00	0.04	-0.04	-0.54	-0.27	-33.48	-12.66	-8.12	32.16	0.00	0.00	-0.10	0.00	-0.06	-0.17	0.00	0.20	0.00	0.00	0.00	0.00	0.00	0.13	0.03	0.00	0.11	0.00	0.00	0.01	0.00	0.00	0.06	0.04	0.00	0.00	0.00	0.00	0.07	0.00	0.00	0.80	0.10	0.00	0.15	0.00	0.00	0.00	0.00
0.00	0.00	0.00	0.00	0.05	-0.05	-0.56	-0.28	-33.47	-12.66	-8.12	32.16	0.00	0.00	-0.11	0.00	-0.06	-0.17	0.00	0.19	0.00	0.00	0.00	0.00	0.00	0.12	0.04	0.00	0.11	0.00	0.00	0.00	0.00	0.00	0.05	0.03	0.00	0.00	0.00	0.00	0.06	0.00	0.00	0.79	0.11	0.00	0.15	0.00	0.00	0.00	0.00
